<?xml version="1.0" encoding="UTF-8"?>
<svg xmlns="http://www.w3.org/2000/svg" width="201" height="69" viewBox="0 0 201 69" fill="none">
  <path d="M34.5 22.5L39 27V22H54.5L59.5 27V22H111L116 27V22H151L155 26V22H192L200 31V42H185.5L195 51.5V57H177V68.5L107 69L102 64.5V69H87L82 64.5V69H9.5L1 61V22.5H34.5Z" fill="#008752"></path>
  <path fill-rule="evenodd" clip-rule="evenodd" d="M34 51V25H5V61H74V33.5H82.5V61H94V33.5H99.5V61H170V49H186V45H170V33H191V25H157.5V57H131V48H150V25H119V57H111V25H62V57H54V25H43V57H17V33H24V51H34ZM139 34V44H131V34H139Z" fill="white"></path>
  <path d="M57 10C57 14.9706 52.9706 19 48 19C43.0294 19 39 14.9706 39 10C39 5.02944 43.0294 1 48 1C52.9706 1 57 5.02944 57 10Z" fill="#008752"></path>
</svg>
